<?xml version="1.0" encoding="UTF-8" standalone="no"?>
<svg
   xmlns:dc="http://purl.org/dc/elements/1.1/"
   xmlns:cc="http://creativecommons.org/ns#"
   xmlns:rdf="http://www.w3.org/1999/02/22-rdf-syntax-ns#"
   xmlns:svg="http://www.w3.org/2000/svg"
   xmlns="http://www.w3.org/2000/svg"
   xmlns:sodipodi="http://sodipodi.sourceforge.net/DTD/sodipodi-0.dtd"
   xmlns:inkscape="http://www.inkscape.org/namespaces/inkscape"
   inkscape:version="1.0 (4035a4fb49, 2020-05-01)"
   sodipodi:docname="LogoEditRed.svg"
   id="svg4"
   version="1.1"
   viewBox="0 0 448 512"
   role="img"
   class="svg-inline--fa fa-flask fa-w-14"
   data-icon="flask"
   data-prefix="fas"
   focusable="false"
   aria-hidden="true">
  <metadata
     id="metadata10">
    <rdf:RDF>
      <cc:Work
         rdf:about="">
        <dc:format>image/svg+xml</dc:format>
        <dc:type
           rdf:resource="http://purl.org/dc/dcmitype/StillImage" />
        <dc:title></dc:title>
      </cc:Work>
    </rdf:RDF>
  </metadata>
  <defs
     id="defs8" />
  <sodipodi:namedview
     inkscape:current-layer="svg4"
     inkscape:window-maximized="1"
     inkscape:window-y="-8"
     inkscape:window-x="-8"
     inkscape:cy="93.624666"
     inkscape:cx="126.71221"
     inkscape:zoom="1.6601562"
     showgrid="false"
     id="namedview6"
     inkscape:window-height="1857"
     inkscape:window-width="1200"
     inkscape:pageshadow="2"
     inkscape:pageopacity="0"
     guidetolerance="10"
     gridtolerance="10"
     objecttolerance="10"
     borderopacity="1"
     bordercolor="#666666"
     pagecolor="#ffffff" />
  <path
     sodipodi:nodetypes="cccsssssssscccssc"
     id="path2"
     d="M 437.80235,403.5 320.60235,215 V 64.000004 h 8 c 13.3,0 24,-10.7 24,-24 v -16 c 0,-13.3 -10.7,-23.999999882353 -24,-23.999999882353 h -208 c -13.3,0 -24,10.699999882353 -24,23.999999882353 v 16 c 0,13.3 10.7,24 24,24 h 8 V 215 l -117.2,188.5 c -29.3,47.1 4.5,108.5 60.1,108.5 h 306.2 c 55.7,0 89.4,-61.5 60.1,-108.5 z"
     fill="currentColor" />
  <path
     id="path896"
     d="m 145.71019,137.78823 c 150.69539,0 150.69539,0 150.69539,0 z"
     style="fill:none;stroke:#000000;stroke-width:1px;stroke-linecap:butt;stroke-linejoin:miter;stroke-opacity:1" />
  <path
     style="fill:#df0000;fill-opacity:1;stroke-width:0.834372"
     fill="currentColor"
     d="M 401.12133,402.67863 303.46142,245.19265 V 119.03678 c -0.83534,-10.34589 -155.6541,-50.613146 -159.98893,0 l 0.60235,48.79059 -0.60235,77.36528 -97.659907,157.48598 c -24.414977,39.35061 3.749741,90.64842 50.079865,90.64842 H 351.04146 c 46.41346,0 74.49485,-51.38136 50.07987,-90.64842 z"
     id="path2-0"
     sodipodi:nodetypes="ccccsccssc" />
</svg>
